<?xml version="1.0" encoding="utf-8"?>
<!-- Generator: Adobe Illustrator 16.0.0, SVG Export Plug-In . SVG Version: 6.00 Build 0)  -->
<!DOCTYPE svg PUBLIC "-//W3C//DTD SVG 1.1//EN" "http://www.w3.org/Graphics/SVG/1.1/DTD/svg11.dtd">
<svg version="1.1" id="Layer_1" xmlns="http://www.w3.org/2000/svg" xmlns:xlink="http://www.w3.org/1999/xlink" x="0px" y="0px"
	 width="351.289px" height="93.245px" viewBox="0 0 351.289 93.245" enable-background="new 0 0 351.289 93.245"
	 xml:space="preserve">
<g>
	<path fill="#F62E90" d="M60.105,85.181c-9.577,8.19-18.397,8.064-30.494,8.064H0V0h28.729c11.215,0,21.799,0.126,29.864,9.072
		c3.906,4.284,5.544,9.577,5.544,15.373c0,7.938-3.906,14.869-10.836,18.775c10.207,3.528,15.373,11.089,15.373,21.673
		C68.674,72.328,65.902,80.267,60.105,85.181z M32.006,20.917h-9.198v14.491h9.072c5.167,0,9.451-1.512,9.451-7.434
		S36.92,20.917,32.006,20.917z M34.778,55.317h-11.97v17.011h11.844c5.922,0,11.215-2.016,11.215-8.947
		C45.867,56.703,40.322,55.317,34.778,55.317z"/>
	<path fill="#AD84DF" d="M140.367,93.245l-4.536-13.483h-32.384l-4.915,13.483H72.953L110.377,0h18.775l37.046,93.245H140.367z
		 M119.954,28.981h-0.126h-0.252l-9.577,31.88h19.531L119.954,28.981z"/>
	<path fill="#6BD9ED" d="M233.731,93.245l-35.534-56.703l-0.252,0.126l0.63,56.577h-22.808V0h20.539l36.038,58.593l0.252-0.252
		L231.59,0h22.808v93.245H233.731z"/>
	<path fill="#A7E040" d="M323.441,93.245l-25.453-40.322h-0.252v40.322h-23.815V0h23.815v41.96h0.252L324.323,0h24.949
		l-30.871,46.497l32.888,46.749H323.441z"/>
</g>
</svg>
